<?xml version="1.0" encoding="UTF-8" standalone="no"?>
<!DOCTYPE svg PUBLIC "-//W3C//DTD SVG 1.1//EN"
 "http://www.w3.org/Graphics/SVG/1.1/DTD/svg11.dtd">
<!-- Generated by graphviz version 2.49.3 (20211023.0002)
 -->
<!-- Pages: 1 -->
<svg width="1653pt" height="740pt"
 viewBox="0.00 0.00 1652.69 740.00" xmlns="http://www.w3.org/2000/svg" xmlns:xlink="http://www.w3.org/1999/xlink">
<g id="graph0" class="graph" transform="scale(1 1) rotate(0) translate(4 736)">
<polygon fill="white" stroke="transparent" points="-4,4 -4,-736 1648.69,-736 1648.69,4 -4,4"/>
<!-- 0 -->
<g id="node1" class="node">
<title>0</title>
<ellipse fill="none" stroke="black" cx="908.29" cy="-714" rx="38.99" ry="18"/>
<text text-anchor="middle" x="908.29" y="-710.3" font-family="Times New Roman,serif" font-size="14.00">f10&lt;0.5</text>
</g>
<!-- 1 -->
<g id="node2" class="node">
<title>1</title>
<ellipse fill="none" stroke="black" cx="629.29" cy="-627" rx="43.59" ry="18"/>
<text text-anchor="middle" x="629.29" y="-623.3" font-family="Times New Roman,serif" font-size="14.00">f233&lt;0.5</text>
</g>
<!-- 0&#45;&gt;1 -->
<g id="edge1" class="edge">
<title>0&#45;&gt;1</title>
<path fill="none" stroke="#0000ff" d="M876.56,-703.33C826.57,-688.1 729.39,-658.49 672.88,-641.28"/>
<polygon fill="#0000ff" stroke="#0000ff" points="673.75,-637.89 663.17,-638.32 671.71,-644.58 673.75,-637.89"/>
<text text-anchor="middle" x="820.79" y="-666.8" font-family="Times New Roman,serif" font-size="14.00">yes, missing</text>
</g>
<!-- 2 -->
<g id="node3" class="node">
<title>2</title>
<ellipse fill="none" stroke="black" cx="1152.29" cy="-627" rx="43.59" ry="18"/>
<text text-anchor="middle" x="1152.29" y="-623.3" font-family="Times New Roman,serif" font-size="14.00">f233&lt;0.5</text>
</g>
<!-- 0&#45;&gt;2 -->
<g id="edge2" class="edge">
<title>0&#45;&gt;2</title>
<path fill="none" stroke="#ff0000" d="M938.7,-702.41C981.97,-687.33 1061.45,-659.65 1110.31,-642.63"/>
<polygon fill="#ff0000" stroke="#ff0000" points="1111.65,-645.86 1119.94,-639.27 1109.35,-639.25 1111.65,-645.86"/>
<text text-anchor="middle" x="1052.79" y="-666.8" font-family="Times New Roman,serif" font-size="14.00">no</text>
</g>
<!-- 3 -->
<g id="node4" class="node">
<title>3</title>
<ellipse fill="none" stroke="black" cx="320.29" cy="-540" rx="34.39" ry="18"/>
<text text-anchor="middle" x="320.29" y="-536.3" font-family="Times New Roman,serif" font-size="14.00">f7&lt;0.5</text>
</g>
<!-- 1&#45;&gt;3 -->
<g id="edge3" class="edge">
<title>1&#45;&gt;3</title>
<path fill="none" stroke="#0000ff" d="M594.15,-616.33C536.28,-600.41 421.29,-568.78 360.36,-552.02"/>
<polygon fill="#0000ff" stroke="#0000ff" points="360.92,-548.54 350.35,-549.27 359.06,-555.29 360.92,-548.54"/>
<text text-anchor="middle" x="528.79" y="-579.8" font-family="Times New Roman,serif" font-size="14.00">yes, missing</text>
</g>
<!-- 4 -->
<g id="node5" class="node">
<title>4</title>
<ellipse fill="none" stroke="black" cx="629.29" cy="-540" rx="38.99" ry="18"/>
<text text-anchor="middle" x="629.29" y="-536.3" font-family="Times New Roman,serif" font-size="14.00">f58&lt;0.5</text>
</g>
<!-- 1&#45;&gt;4 -->
<g id="edge4" class="edge">
<title>1&#45;&gt;4</title>
<path fill="none" stroke="#ff0000" d="M629.29,-608.8C629.29,-597.16 629.29,-581.55 629.29,-568.24"/>
<polygon fill="#ff0000" stroke="#ff0000" points="632.79,-568.18 629.29,-558.18 625.79,-568.18 632.79,-568.18"/>
<text text-anchor="middle" x="636.79" y="-579.8" font-family="Times New Roman,serif" font-size="14.00">no</text>
</g>
<!-- 5 -->
<g id="node26" class="node">
<title>5</title>
<ellipse fill="none" stroke="black" cx="1152.29" cy="-540" rx="43.59" ry="18"/>
<text text-anchor="middle" x="1152.29" y="-536.3" font-family="Times New Roman,serif" font-size="14.00">f225&lt;0.5</text>
</g>
<!-- 2&#45;&gt;5 -->
<g id="edge25" class="edge">
<title>2&#45;&gt;5</title>
<path fill="none" stroke="#0000ff" d="M1152.29,-608.8C1152.29,-597.16 1152.29,-581.55 1152.29,-568.24"/>
<polygon fill="#0000ff" stroke="#0000ff" points="1155.79,-568.18 1152.29,-558.18 1148.79,-568.18 1155.79,-568.18"/>
<text text-anchor="middle" x="1186.79" y="-579.8" font-family="Times New Roman,serif" font-size="14.00">yes, missing</text>
</g>
<!-- 6 -->
<g id="node27" class="node">
<title>6</title>
<ellipse fill="none" stroke="black" cx="1400.29" cy="-540" rx="43.59" ry="18"/>
<text text-anchor="middle" x="1400.29" y="-536.3" font-family="Times New Roman,serif" font-size="14.00">f140&lt;0.5</text>
</g>
<!-- 2&#45;&gt;6 -->
<g id="edge26" class="edge">
<title>2&#45;&gt;6</title>
<path fill="none" stroke="#ff0000" d="M1184.71,-614.89C1229.18,-599.65 1309.14,-572.24 1358.19,-555.43"/>
<polygon fill="#ff0000" stroke="#ff0000" points="1359.54,-558.67 1367.86,-552.11 1357.27,-552.05 1359.54,-558.67"/>
<text text-anchor="middle" x="1298.79" y="-579.8" font-family="Times New Roman,serif" font-size="14.00">no</text>
</g>
<!-- 7 -->
<g id="node6" class="node">
<title>7</title>
<ellipse fill="none" stroke="black" cx="180.29" cy="-453" rx="77.99" ry="18"/>
<text text-anchor="middle" x="180.29" y="-449.3" font-family="Times New Roman,serif" font-size="14.00">leaf=&#45;0.105280332</text>
</g>
<!-- 3&#45;&gt;7 -->
<g id="edge5" class="edge">
<title>3&#45;&gt;7</title>
<path fill="none" stroke="#0000ff" d="M294.32,-528.03C280.08,-521.65 262.32,-513.09 247.29,-504 234,-495.96 220.11,-485.9 208.45,-476.92"/>
<polygon fill="#0000ff" stroke="#0000ff" points="210.43,-474.02 200.39,-470.62 206.11,-479.53 210.43,-474.02"/>
<text text-anchor="middle" x="281.79" y="-492.8" font-family="Times New Roman,serif" font-size="14.00">yes, missing</text>
</g>
<!-- 8 -->
<g id="node7" class="node">
<title>8</title>
<ellipse fill="none" stroke="black" cx="320.29" cy="-453" rx="43.59" ry="18"/>
<text text-anchor="middle" x="320.29" y="-449.3" font-family="Times New Roman,serif" font-size="14.00">f229&lt;0.5</text>
</g>
<!-- 3&#45;&gt;8 -->
<g id="edge6" class="edge">
<title>3&#45;&gt;8</title>
<path fill="none" stroke="#ff0000" d="M320.29,-521.8C320.29,-510.16 320.29,-494.55 320.29,-481.24"/>
<polygon fill="#ff0000" stroke="#ff0000" points="323.79,-481.18 320.29,-471.18 316.79,-481.18 323.79,-481.18"/>
<text text-anchor="middle" x="327.79" y="-492.8" font-family="Times New Roman,serif" font-size="14.00">no</text>
</g>
<!-- 9 -->
<g id="node10" class="node">
<title>9</title>
<ellipse fill="none" stroke="black" cx="583.29" cy="-453" rx="38.99" ry="18"/>
<text text-anchor="middle" x="583.29" y="-449.3" font-family="Times New Roman,serif" font-size="14.00">f13&lt;0.5</text>
</g>
<!-- 4&#45;&gt;9 -->
<g id="edge9" class="edge">
<title>4&#45;&gt;9</title>
<path fill="none" stroke="#0000ff" d="M620.2,-522.21C613.65,-510.1 604.69,-493.53 597.23,-479.76"/>
<polygon fill="#0000ff" stroke="#0000ff" points="600.2,-477.89 592.36,-470.76 594.04,-481.22 600.2,-477.89"/>
<text text-anchor="middle" x="643.79" y="-492.8" font-family="Times New Roman,serif" font-size="14.00">yes, missing</text>
</g>
<!-- 10 -->
<g id="node11" class="node">
<title>10</title>
<ellipse fill="none" stroke="black" cx="747.29" cy="-453" rx="43.59" ry="18"/>
<text text-anchor="middle" x="747.29" y="-449.3" font-family="Times New Roman,serif" font-size="14.00">f140&lt;0.5</text>
</g>
<!-- 4&#45;&gt;10 -->
<g id="edge10" class="edge">
<title>4&#45;&gt;10</title>
<path fill="none" stroke="#ff0000" d="M651.19,-525.04C660.84,-518.77 672.24,-511.17 682.29,-504 694.98,-494.95 708.69,-484.5 720.24,-475.5"/>
<polygon fill="#ff0000" stroke="#ff0000" points="722.51,-478.17 728.23,-469.25 718.2,-472.66 722.51,-478.17"/>
<text text-anchor="middle" x="709.79" y="-492.8" font-family="Times New Roman,serif" font-size="14.00">no</text>
</g>
<!-- 15 -->
<g id="node8" class="node">
<title>15</title>
<ellipse fill="none" stroke="black" cx="144.29" cy="-366" rx="75.29" ry="18"/>
<text text-anchor="middle" x="144.29" y="-362.3" font-family="Times New Roman,serif" font-size="14.00">leaf=0.305084765</text>
</g>
<!-- 8&#45;&gt;15 -->
<g id="edge7" class="edge">
<title>8&#45;&gt;15</title>
<path fill="none" stroke="#0000ff" d="M292.89,-438.9C279.19,-432.34 262.36,-424.27 247.29,-417 226.77,-407.1 203.97,-396.04 185.06,-386.84"/>
<polygon fill="#0000ff" stroke="#0000ff" points="186.35,-383.58 175.83,-382.36 183.29,-389.88 186.35,-383.58"/>
<text text-anchor="middle" x="281.79" y="-405.8" font-family="Times New Roman,serif" font-size="14.00">yes, missing</text>
</g>
<!-- 16 -->
<g id="node9" class="node">
<title>16</title>
<ellipse fill="none" stroke="black" cx="320.29" cy="-366" rx="82.59" ry="18"/>
<text text-anchor="middle" x="320.29" y="-362.3" font-family="Times New Roman,serif" font-size="14.00">leaf=&#45;0.0120401336</text>
</g>
<!-- 8&#45;&gt;16 -->
<g id="edge8" class="edge">
<title>8&#45;&gt;16</title>
<path fill="none" stroke="#ff0000" d="M320.29,-434.8C320.29,-423.16 320.29,-407.55 320.29,-394.24"/>
<polygon fill="#ff0000" stroke="#ff0000" points="323.79,-394.18 320.29,-384.18 316.79,-394.18 323.79,-394.18"/>
<text text-anchor="middle" x="327.79" y="-405.8" font-family="Times New Roman,serif" font-size="14.00">no</text>
</g>
<!-- 17 -->
<g id="node12" class="node">
<title>17</title>
<ellipse fill="none" stroke="black" cx="455.29" cy="-366" rx="34.39" ry="18"/>
<text text-anchor="middle" x="455.29" y="-362.3" font-family="Times New Roman,serif" font-size="14.00">f7&lt;0.5</text>
</g>
<!-- 9&#45;&gt;17 -->
<g id="edge11" class="edge">
<title>9&#45;&gt;17</title>
<path fill="none" stroke="#0000ff" d="M554.52,-440.53C540.64,-434.42 524.05,-426.26 510.29,-417 498.64,-409.15 486.94,-398.94 477.36,-389.78"/>
<polygon fill="#0000ff" stroke="#0000ff" points="479.75,-387.23 470.16,-382.74 474.86,-392.23 479.75,-387.23"/>
<text text-anchor="middle" x="544.79" y="-405.8" font-family="Times New Roman,serif" font-size="14.00">yes, missing</text>
</g>
<!-- 18 -->
<g id="node13" class="node">
<title>18</title>
<ellipse fill="none" stroke="black" cx="583.29" cy="-366" rx="75.29" ry="18"/>
<text text-anchor="middle" x="583.29" y="-362.3" font-family="Times New Roman,serif" font-size="14.00">leaf=0.821198165</text>
</g>
<!-- 9&#45;&gt;18 -->
<g id="edge12" class="edge">
<title>9&#45;&gt;18</title>
<path fill="none" stroke="#ff0000" d="M583.29,-434.8C583.29,-423.16 583.29,-407.55 583.29,-394.24"/>
<polygon fill="#ff0000" stroke="#ff0000" points="586.79,-394.18 583.29,-384.18 579.79,-394.18 586.79,-394.18"/>
<text text-anchor="middle" x="590.79" y="-405.8" font-family="Times New Roman,serif" font-size="14.00">no</text>
</g>
<!-- 19 -->
<g id="node24" class="node">
<title>19</title>
<ellipse fill="none" stroke="black" cx="747.29" cy="-366" rx="70.69" ry="18"/>
<text text-anchor="middle" x="747.29" y="-362.3" font-family="Times New Roman,serif" font-size="14.00">leaf=0.37124306</text>
</g>
<!-- 10&#45;&gt;19 -->
<g id="edge23" class="edge">
<title>10&#45;&gt;19</title>
<path fill="none" stroke="#0000ff" d="M747.29,-434.8C747.29,-423.16 747.29,-407.55 747.29,-394.24"/>
<polygon fill="#0000ff" stroke="#0000ff" points="750.79,-394.18 747.29,-384.18 743.79,-394.18 750.79,-394.18"/>
<text text-anchor="middle" x="781.79" y="-405.8" font-family="Times New Roman,serif" font-size="14.00">yes, missing</text>
</g>
<!-- 20 -->
<g id="node25" class="node">
<title>20</title>
<ellipse fill="none" stroke="black" cx="911.29" cy="-366" rx="75.29" ry="18"/>
<text text-anchor="middle" x="911.29" y="-362.3" font-family="Times New Roman,serif" font-size="14.00">leaf=0.212535426</text>
</g>
<!-- 10&#45;&gt;20 -->
<g id="edge24" class="edge">
<title>10&#45;&gt;20</title>
<path fill="none" stroke="#ff0000" d="M775.2,-439.06C788.88,-432.61 805.54,-424.58 820.29,-417 838.28,-407.75 857.99,-397.01 874.45,-387.85"/>
<polygon fill="#ff0000" stroke="#ff0000" points="876.2,-390.88 883.23,-382.95 872.79,-384.77 876.2,-390.88"/>
<text text-anchor="middle" x="855.79" y="-405.8" font-family="Times New Roman,serif" font-size="14.00">no</text>
</g>
<!-- 23 -->
<g id="node14" class="node">
<title>23</title>
<ellipse fill="none" stroke="black" cx="361.29" cy="-279" rx="38.99" ry="18"/>
<text text-anchor="middle" x="361.29" y="-275.3" font-family="Times New Roman,serif" font-size="14.00">f78&lt;0.5</text>
</g>
<!-- 17&#45;&gt;23 -->
<g id="edge13" class="edge">
<title>17&#45;&gt;23</title>
<path fill="none" stroke="#0000ff" d="M438.57,-350.04C431.66,-343.84 423.58,-336.59 416.29,-330 406.27,-320.94 395.24,-310.93 385.72,-302.26"/>
<polygon fill="#0000ff" stroke="#0000ff" points="387.87,-299.49 378.12,-295.35 383.16,-304.67 387.87,-299.49"/>
<text text-anchor="middle" x="450.79" y="-318.8" font-family="Times New Roman,serif" font-size="14.00">yes, missing</text>
</g>
<!-- 24 -->
<g id="node15" class="node">
<title>24</title>
<ellipse fill="none" stroke="black" cx="530.29" cy="-279" rx="43.59" ry="18"/>
<text text-anchor="middle" x="530.29" y="-275.3" font-family="Times New Roman,serif" font-size="14.00">f140&lt;0.5</text>
</g>
<!-- 17&#45;&gt;24 -->
<g id="edge14" class="edge">
<title>17&#45;&gt;24</title>
<path fill="none" stroke="#ff0000" d="M469.05,-349.41C480.32,-336.63 496.46,-318.34 509.35,-303.74"/>
<polygon fill="#ff0000" stroke="#ff0000" points="512.12,-305.88 516.11,-296.07 506.87,-301.25 512.12,-305.88"/>
<text text-anchor="middle" x="504.79" y="-318.8" font-family="Times New Roman,serif" font-size="14.00">no</text>
</g>
<!-- 25 -->
<g id="node16" class="node">
<title>25</title>
<ellipse fill="none" stroke="black" cx="229.29" cy="-192" rx="38.99" ry="18"/>
<text text-anchor="middle" x="229.29" y="-188.3" font-family="Times New Roman,serif" font-size="14.00">f11&lt;0.5</text>
</g>
<!-- 23&#45;&gt;25 -->
<g id="edge15" class="edge">
<title>23&#45;&gt;25</title>
<path fill="none" stroke="#0000ff" d="M333.01,-266.47C319.09,-260.3 302.33,-252.1 288.29,-243 275.9,-234.97 263.27,-224.61 252.89,-215.41"/>
<polygon fill="#0000ff" stroke="#0000ff" points="255.19,-212.77 245.43,-208.65 250.49,-217.96 255.19,-212.77"/>
<text text-anchor="middle" x="322.79" y="-231.8" font-family="Times New Roman,serif" font-size="14.00">yes, missing</text>
</g>
<!-- 26 -->
<g id="node17" class="node">
<title>26</title>
<ellipse fill="none" stroke="black" cx="361.29" cy="-192" rx="75.29" ry="18"/>
<text text-anchor="middle" x="361.29" y="-188.3" font-family="Times New Roman,serif" font-size="14.00">leaf=0.498967469</text>
</g>
<!-- 23&#45;&gt;26 -->
<g id="edge16" class="edge">
<title>23&#45;&gt;26</title>
<path fill="none" stroke="#ff0000" d="M361.29,-260.8C361.29,-249.16 361.29,-233.55 361.29,-220.24"/>
<polygon fill="#ff0000" stroke="#ff0000" points="364.79,-220.18 361.29,-210.18 357.79,-220.18 364.79,-220.18"/>
<text text-anchor="middle" x="368.79" y="-231.8" font-family="Times New Roman,serif" font-size="14.00">no</text>
</g>
<!-- 27 -->
<g id="node22" class="node">
<title>27</title>
<ellipse fill="none" stroke="black" cx="530.29" cy="-192" rx="75.29" ry="18"/>
<text text-anchor="middle" x="530.29" y="-188.3" font-family="Times New Roman,serif" font-size="14.00">leaf=0.388228387</text>
</g>
<!-- 24&#45;&gt;27 -->
<g id="edge21" class="edge">
<title>24&#45;&gt;27</title>
<path fill="none" stroke="#0000ff" d="M530.29,-260.8C530.29,-249.16 530.29,-233.55 530.29,-220.24"/>
<polygon fill="#0000ff" stroke="#0000ff" points="533.79,-220.18 530.29,-210.18 526.79,-220.18 533.79,-220.18"/>
<text text-anchor="middle" x="564.79" y="-231.8" font-family="Times New Roman,serif" font-size="14.00">yes, missing</text>
</g>
<!-- 28 -->
<g id="node23" class="node">
<title>28</title>
<ellipse fill="none" stroke="black" cx="706.29" cy="-192" rx="82.59" ry="18"/>
<text text-anchor="middle" x="706.29" y="-188.3" font-family="Times New Roman,serif" font-size="14.00">leaf=&#45;0.0202661213</text>
</g>
<!-- 24&#45;&gt;28 -->
<g id="edge22" class="edge">
<title>24&#45;&gt;28</title>
<path fill="none" stroke="#ff0000" d="M557.69,-264.9C571.4,-258.34 588.23,-250.27 603.29,-243 623.51,-233.25 645.93,-222.37 664.68,-213.26"/>
<polygon fill="#ff0000" stroke="#ff0000" points="666.38,-216.32 673.84,-208.8 663.32,-210.03 666.38,-216.32"/>
<text text-anchor="middle" x="639.79" y="-231.8" font-family="Times New Roman,serif" font-size="14.00">no</text>
</g>
<!-- 29 -->
<g id="node18" class="node">
<title>29</title>
<ellipse fill="none" stroke="black" cx="163.29" cy="-105" rx="38.99" ry="18"/>
<text text-anchor="middle" x="163.29" y="-101.3" font-family="Times New Roman,serif" font-size="14.00">f47&lt;0.5</text>
</g>
<!-- 25&#45;&gt;29 -->
<g id="edge17" class="edge">
<title>25&#45;&gt;29</title>
<path fill="none" stroke="#0000ff" d="M216.57,-174.61C206.8,-162.03 193.16,-144.46 182.12,-130.25"/>
<polygon fill="#0000ff" stroke="#0000ff" points="184.88,-128.09 175.98,-122.34 179.35,-132.38 184.88,-128.09"/>
<text text-anchor="middle" x="234.79" y="-144.8" font-family="Times New Roman,serif" font-size="14.00">yes, missing</text>
</g>
<!-- 30 -->
<g id="node19" class="node">
<title>30</title>
<ellipse fill="none" stroke="black" cx="295.29" cy="-105" rx="75.29" ry="18"/>
<text text-anchor="middle" x="295.29" y="-101.3" font-family="Times New Roman,serif" font-size="14.00">leaf=0.567123294</text>
</g>
<!-- 25&#45;&gt;30 -->
<g id="edge18" class="edge">
<title>25&#45;&gt;30</title>
<path fill="none" stroke="#ff0000" d="M251.31,-176.8C259,-171.04 267.21,-163.89 273.29,-156 278.64,-149.06 283,-140.61 286.38,-132.65"/>
<polygon fill="#ff0000" stroke="#ff0000" points="289.65,-133.91 290.02,-123.32 283.13,-131.36 289.65,-133.91"/>
<text text-anchor="middle" x="289.79" y="-144.8" font-family="Times New Roman,serif" font-size="14.00">no</text>
</g>
<!-- 31 -->
<g id="node20" class="node">
<title>31</title>
<ellipse fill="none" stroke="black" cx="79.29" cy="-18" rx="79.09" ry="18"/>
<text text-anchor="middle" x="79.29" y="-14.3" font-family="Times New Roman,serif" font-size="14.00">leaf=0.0537843108</text>
</g>
<!-- 29&#45;&gt;31 -->
<g id="edge19" class="edge">
<title>29&#45;&gt;31</title>
<path fill="none" stroke="#0000ff" d="M147.89,-88.41C135.3,-75.68 117.31,-57.47 102.91,-42.89"/>
<polygon fill="#0000ff" stroke="#0000ff" points="105.27,-40.31 95.75,-35.65 100.29,-45.23 105.27,-40.31"/>
<text text-anchor="middle" x="161.79" y="-57.8" font-family="Times New Roman,serif" font-size="14.00">yes, missing</text>
</g>
<!-- 32 -->
<g id="node21" class="node">
<title>32</title>
<ellipse fill="none" stroke="black" cx="247.29" cy="-18" rx="70.69" ry="18"/>
<text text-anchor="middle" x="247.29" y="-14.3" font-family="Times New Roman,serif" font-size="14.00">leaf=0.31583643</text>
</g>
<!-- 29&#45;&gt;32 -->
<g id="edge20" class="edge">
<title>29&#45;&gt;32</title>
<path fill="none" stroke="#ff0000" d="M180.07,-88.52C186.48,-82.51 193.8,-75.51 200.29,-69 208.45,-60.82 217.18,-51.66 224.86,-43.43"/>
<polygon fill="#ff0000" stroke="#ff0000" points="227.62,-45.61 231.87,-35.9 222.5,-40.84 227.62,-45.61"/>
<text text-anchor="middle" x="222.79" y="-57.8" font-family="Times New Roman,serif" font-size="14.00">no</text>
</g>
<!-- 11 -->
<g id="node28" class="node">
<title>11</title>
<ellipse fill="none" stroke="black" cx="1080.29" cy="-453" rx="43.59" ry="18"/>
<text text-anchor="middle" x="1080.29" y="-449.3" font-family="Times New Roman,serif" font-size="14.00">f232&lt;0.5</text>
</g>
<!-- 5&#45;&gt;11 -->
<g id="edge27" class="edge">
<title>5&#45;&gt;11</title>
<path fill="none" stroke="#0000ff" d="M1138.41,-522.61C1127.75,-510.03 1112.87,-492.46 1100.84,-478.25"/>
<polygon fill="#0000ff" stroke="#0000ff" points="1103.27,-475.71 1094.13,-470.34 1097.93,-480.23 1103.27,-475.71"/>
<text text-anchor="middle" x="1155.79" y="-492.8" font-family="Times New Roman,serif" font-size="14.00">yes, missing</text>
</g>
<!-- 12 -->
<g id="node29" class="node">
<title>12</title>
<ellipse fill="none" stroke="black" cx="1224.29" cy="-453" rx="82.59" ry="18"/>
<text text-anchor="middle" x="1224.29" y="-449.3" font-family="Times New Roman,serif" font-size="14.00">leaf=&#45;0.0688995272</text>
</g>
<!-- 5&#45;&gt;12 -->
<g id="edge28" class="edge">
<title>5&#45;&gt;12</title>
<path fill="none" stroke="#ff0000" d="M1173.2,-523.88C1180.36,-518.13 1188.12,-511.21 1194.29,-504 1200.51,-496.74 1206.23,-488.03 1210.96,-479.93"/>
<polygon fill="#ff0000" stroke="#ff0000" points="1214.04,-481.59 1215.87,-471.15 1207.93,-478.17 1214.04,-481.59"/>
<text text-anchor="middle" x="1212.79" y="-492.8" font-family="Times New Roman,serif" font-size="14.00">no</text>
</g>
<!-- 13 -->
<g id="node32" class="node">
<title>13</title>
<ellipse fill="none" stroke="black" cx="1400.29" cy="-453" rx="75.29" ry="18"/>
<text text-anchor="middle" x="1400.29" y="-449.3" font-family="Times New Roman,serif" font-size="14.00">leaf=0.515955031</text>
</g>
<!-- 6&#45;&gt;13 -->
<g id="edge31" class="edge">
<title>6&#45;&gt;13</title>
<path fill="none" stroke="#0000ff" d="M1400.29,-521.8C1400.29,-510.16 1400.29,-494.55 1400.29,-481.24"/>
<polygon fill="#0000ff" stroke="#0000ff" points="1403.79,-481.18 1400.29,-471.18 1396.79,-481.18 1403.79,-481.18"/>
<text text-anchor="middle" x="1434.79" y="-492.8" font-family="Times New Roman,serif" font-size="14.00">yes, missing</text>
</g>
<!-- 14 -->
<g id="node33" class="node">
<title>14</title>
<ellipse fill="none" stroke="black" cx="1569.29" cy="-453" rx="75.29" ry="18"/>
<text text-anchor="middle" x="1569.29" y="-449.3" font-family="Times New Roman,serif" font-size="14.00">leaf=0.491089791</text>
</g>
<!-- 6&#45;&gt;14 -->
<g id="edge32" class="edge">
<title>6&#45;&gt;14</title>
<path fill="none" stroke="#ff0000" d="M1428.13,-525.92C1441.79,-519.43 1458.46,-511.42 1473.29,-504 1492.15,-494.57 1512.93,-483.8 1530.31,-474.68"/>
<polygon fill="#ff0000" stroke="#ff0000" points="1532.37,-477.55 1539.59,-469.8 1529.11,-471.35 1532.37,-477.55"/>
<text text-anchor="middle" x="1509.79" y="-492.8" font-family="Times New Roman,serif" font-size="14.00">no</text>
</g>
<!-- 21 -->
<g id="node30" class="node">
<title>21</title>
<ellipse fill="none" stroke="black" cx="1080.29" cy="-366" rx="75.29" ry="18"/>
<text text-anchor="middle" x="1080.29" y="-362.3" font-family="Times New Roman,serif" font-size="14.00">leaf=0.357293218</text>
</g>
<!-- 11&#45;&gt;21 -->
<g id="edge29" class="edge">
<title>11&#45;&gt;21</title>
<path fill="none" stroke="#0000ff" d="M1080.29,-434.8C1080.29,-423.16 1080.29,-407.55 1080.29,-394.24"/>
<polygon fill="#0000ff" stroke="#0000ff" points="1083.79,-394.18 1080.29,-384.18 1076.79,-394.18 1083.79,-394.18"/>
<text text-anchor="middle" x="1114.79" y="-405.8" font-family="Times New Roman,serif" font-size="14.00">yes, missing</text>
</g>
<!-- 22 -->
<g id="node31" class="node">
<title>22</title>
<ellipse fill="none" stroke="black" cx="1256.29" cy="-366" rx="82.59" ry="18"/>
<text text-anchor="middle" x="1256.29" y="-362.3" font-family="Times New Roman,serif" font-size="14.00">leaf=&#45;0.0652849749</text>
</g>
<!-- 11&#45;&gt;22 -->
<g id="edge30" class="edge">
<title>11&#45;&gt;22</title>
<path fill="none" stroke="#ff0000" d="M1107.69,-438.9C1121.4,-432.34 1138.23,-424.27 1153.29,-417 1173.51,-407.25 1195.93,-396.37 1214.68,-387.26"/>
<polygon fill="#ff0000" stroke="#ff0000" points="1216.38,-390.32 1223.84,-382.8 1213.32,-384.03 1216.38,-390.32"/>
<text text-anchor="middle" x="1189.79" y="-405.8" font-family="Times New Roman,serif" font-size="14.00">no</text>
</g>
</g>
</svg>
